<?xml version="1.0"?>
<svg xmlns="http://www.w3.org/2000/svg" width="1080" height="430" viewBox="0 0 1080 430" role="img" aria-labelledby="title desc">
  <title id="title">&#x4E0A;&#x4E0B;&#x6587;&#x7A97;&#x53E3;&#x9884;&#x7B97;&#x7EC4;&#x6210;</title>
  <desc id="desc">&#x4E00;&#x4E2A;&#x56FA;&#x5B9A;&#x5927;&#x5C0F;&#x7684;&#x4E0A;&#x4E0B;&#x6587;&#x7A97;&#x53E3;&#x7531;&#x7CFB;&#x7EDF;&#x6D88;&#x606F;&#x3001;&#x5386;&#x53F2;&#x3001;&#x672C;&#x8F6E;&#x8F93;&#x5165;&#x3001;&#x5916;&#x90E8;&#x6750;&#x6599;&#x3001;&#x534F;&#x8BAE;&#x5F00;&#x9500;&#x548C;&#x8F93;&#x51FA;&#x9884;&#x7559;&#x5171;&#x540C;&#x5360;&#x7528;&#x3002;&#x8F93;&#x5165;&#x589E;&#x52A0;&#x4F1A;&#x538B;&#x7F29;&#x53EF;&#x7528;&#x8F93;&#x51FA;&#x7A7A;&#x95F4;&#x3002;</desc>
  <rect width="1080" height="430" rx="28" fill="#f7f8fc"/>
  <text x="540" y="48" text-anchor="middle" font-family="system-ui, sans-serif" font-size="25" font-weight="700" fill="#202746">&#x8F93;&#x5165;&#x4E0E;&#x8F93;&#x51FA;&#x5171;&#x4EAB;&#x540C;&#x4E00;&#x4E2A;&#x4E0A;&#x4E0B;&#x6587;&#x7A97;&#x53E3;</text>
  <g font-family="system-ui, sans-serif">
    <rect x="60" y="115" width="960" height="110" rx="18" fill="#fff" stroke="#bbc3df" stroke-width="2"/>
    <path d="M75 133 Q75 130 93 130 H212 V210 H75 Z" fill="#5368d4"/>
    <rect x="212" y="130" width="195" height="80" fill="#7687df"/>
    <rect x="407" y="130" width="150" height="80" fill="#9aa8eb"/>
    <rect x="557" y="130" width="230" height="80" fill="#e4a34c"/>
    <rect x="787" y="130" width="83" height="80" fill="#bdc5db"/>
    <path d="M870 130 H987 Q1005 130 1005 148 V210 H870 Z" fill="#4aa877"/>
    <g fill="#fff" font-size="14" font-weight="700" text-anchor="middle">
      <text x="143.5" y="167">system</text>
      <text x="143.5" y="189">&#x89C4;&#x5219;</text>
      <text x="309.5" y="178">&#x5BF9;&#x8BDD;&#x5386;&#x53F2;</text>
      <text x="482" y="168">&#x672C;&#x8F6E;</text>
      <text x="482" y="190">&#x8F93;&#x5165;</text>
      <text x="672" y="168">&#x68C0;&#x7D22;&#x6750;&#x6599;</text>
      <text x="672" y="190">&#x4E0E;&#x5DE5;&#x5177;&#x5B9A;&#x4E49;</text>
      <text x="828.5" y="168">&#x534F;&#x8BAE;</text>
      <text x="828.5" y="190">&#x5F00;&#x9500;</text>
      <text x="937.5" y="168">&#x8F93;&#x51FA;&#x9884;&#x7559;</text>
    </g>
    <line x1="60" y1="275" x2="1020" y2="275" stroke="#5267d3" stroke-width="3"/>
    <path d="M60 275 l14 -8 v16 z" fill="#5267d3"/>
    <path d="M1020 275 l-14 -8 v16 z" fill="#5267d3"/>
    <text x="540" y="308" text-anchor="middle" font-size="16" font-weight="700" fill="#36436c">&#x56FA;&#x5B9A;&#x7684;&#x6A21;&#x578B;&#x4E0A;&#x4E0B;&#x6587;&#x4E0A;&#x9650;</text>
    <rect x="110" y="345" width="860" height="52" rx="12" fill="#fff4e5" stroke="#e1a34b"/>
    <text x="540" y="377" text-anchor="middle" font-size="15" fill="#73501f">&#x5916;&#x90E8;&#x6750;&#x6599;&#x6216;&#x5386;&#x53F2;&#x589E;&#x52A0;&#x65F6;&#xFF0C;&#x5FC5;&#x987B;&#x51CF;&#x5C11;&#x5176;&#x4ED6;&#x8F93;&#x5165;&#x3001;&#x964D;&#x4F4E;&#x8F93;&#x51FA;&#x9884;&#x7559;&#xFF0C;&#x6216;&#x660E;&#x786E;&#x62D2;&#x7EDD;&#x8BF7;&#x6C42;</text>
  </g>
</svg>
